<svg width="127" height="41" viewBox="0 0 127 41" fill="none" xmlns="http://www.w3.org/2000/svg">
<path d="M51.8427 29H55.0046V21.5852H62.2575V18.9347H55.0046V14.196H63.0245V11.5455H51.8427V29ZM68.854 11.5455H65.7688V29H68.854V11.5455ZM80.3704 23.4943C80.3704 25.4886 78.9471 26.4773 77.5835 26.4773C76.1005 26.4773 75.1119 25.429 75.1119 23.767V15.9091H72.0266V24.2443C72.0266 27.3892 73.8164 29.1705 76.3903 29.1705C78.3505 29.1705 79.7312 28.1392 80.3278 26.6733H80.4641V29H83.4556V15.9091H80.3704V23.4943ZM93.1651 15.9091H90.5827V12.7727H87.4975V15.9091H85.6396V18.2955H87.4975V25.5739C87.4805 28.0369 89.2702 29.2472 91.5884 29.179C92.4663 29.1534 93.0714 28.983 93.4038 28.8722L92.8839 26.4602C92.7134 26.5028 92.364 26.5795 91.9805 26.5795C91.2049 26.5795 90.5827 26.3068 90.5827 25.0625V18.2955H93.1651V15.9091ZM102.282 15.9091H99.6999V12.7727H96.6147V15.9091H94.7567V18.2955H96.6147V25.5739C96.5977 28.0369 98.3874 29.2472 100.706 29.179C101.583 29.1534 102.189 28.983 102.521 28.8722L102.001 26.4602C101.831 26.5028 101.481 26.5795 101.098 26.5795C100.322 26.5795 99.6999 26.3068 99.6999 25.0625V18.2955H102.282V15.9091ZM110.517 29.2557C113.569 29.2557 115.665 27.7642 116.211 25.4886L113.33 25.1648C112.912 26.2727 111.89 26.8523 110.56 26.8523C108.566 26.8523 107.245 25.5398 107.219 23.2983H116.338V22.3523C116.338 17.7585 113.577 15.7386 110.355 15.7386C106.605 15.7386 104.159 18.4915 104.159 22.5312C104.159 26.6392 106.571 29.2557 110.517 29.2557ZM107.228 21.2188C107.321 19.5483 108.557 18.142 110.398 18.142C112.171 18.142 113.364 19.4375 113.381 21.2188H107.228ZM118.949 29H122.034V21.304C122.034 19.642 123.287 18.4659 124.983 18.4659C125.502 18.4659 126.15 18.5597 126.414 18.6449V15.8068C126.133 15.7557 125.647 15.7216 125.306 15.7216C123.806 15.7216 122.554 16.5739 122.076 18.0909H121.94V15.9091H118.949V29Z" fill="#212936"/>
<path d="M19.2287 23.895L23.43 19.8025H33.8662L24.6212 29.0475L19.2287 23.895Z" fill="#40D0FD"/>
<path d="M6.13375 21.1563L11.3825 26.53L33.8663 3.85876H23.43L6.13375 21.1563Z" fill="#41D0FD"/>
<path d="M13.97 29.0988L19.2938 34.3438L24.6213 29.0475L19.2288 23.895L13.97 29.0988Z" fill="#1FBCFD"/>
<path d="M19.2937 34.3437L24.6212 29.0475L33.7362 38.2662H23.2412L19.2937 34.3437Z" fill="#095A9D"/>
<path d="M19.2937 34.3438L24.2575 32.6925L22.585 31.0713L19.2937 34.3438Z" fill="#0E5199"/>
</svg>
