<svg width="130" height="41" viewBox="0 0 130 41" fill="none" xmlns="http://www.w3.org/2000/svg">
<path d="M56.7518 29.2301C59.0018 29.2301 60.016 27.892 60.5018 26.9375H60.6893V29H63.7234V11.5455H60.6296V18.0739H60.5018C60.033 17.1278 59.07 15.7386 56.7603 15.7386C53.7347 15.7386 51.3569 18.108 51.3569 22.4716C51.3569 26.7841 53.6665 29.2301 56.7518 29.2301ZM57.6126 26.6989C55.5756 26.6989 54.5018 24.9091 54.5018 22.4545C54.5018 20.017 55.5586 18.2699 57.6126 18.2699C59.5984 18.2699 60.6893 19.9148 60.6893 22.4545C60.6893 24.9943 59.5813 26.6989 57.6126 26.6989ZM67.011 15.9091V29.7074C67.011 30.8068 66.5423 31.3949 65.3576 31.3949C65.2042 31.3949 65.0849 31.3864 64.9144 31.3778V33.892C65.136 33.9091 65.3235 33.9091 65.5451 33.9091C68.4343 33.9091 70.0962 32.5795 70.0962 29.75V15.9091H67.011ZM68.5451 14.0511C69.5252 14.0511 70.3263 13.3011 70.3263 12.3807C70.3263 11.4517 69.5252 10.7017 68.5451 10.7017C67.5565 10.7017 66.7553 11.4517 66.7553 12.3807C66.7553 13.3011 67.5565 14.0511 68.5451 14.0511ZM77.0359 29.2642C79.0898 29.2642 80.3171 28.3011 80.8796 27.2017H80.9819V29H83.9478V20.2386C83.9478 16.7784 81.1268 15.7386 78.6296 15.7386C75.8768 15.7386 73.7631 16.9659 73.0813 19.3523L75.962 19.7614C76.2688 18.8665 77.1381 18.0994 78.6467 18.0994C80.0785 18.0994 80.8626 18.8324 80.8626 20.1193V20.1705C80.8626 21.0568 79.9336 21.0994 77.6239 21.3466C75.0842 21.6193 72.6552 22.3778 72.6552 25.3267C72.6552 27.9006 74.5387 29.2642 77.0359 29.2642ZM77.837 26.9972C76.5501 26.9972 75.6296 26.4091 75.6296 25.2756C75.6296 24.0909 76.6609 23.5966 78.0415 23.4006C78.8512 23.2898 80.4705 23.0852 80.8711 22.7614V24.304C80.8711 25.7614 79.695 26.9972 77.837 26.9972ZM90.1353 21.3295C90.1353 19.4375 91.2773 18.3466 92.9052 18.3466C94.4989 18.3466 95.4535 19.3949 95.4535 21.142V29H98.5387V20.6648C98.5472 17.5284 96.7575 15.7386 94.0558 15.7386C92.0955 15.7386 90.7489 16.6761 90.1523 18.1335H89.9989V15.9091H87.0501V29H90.1353V21.3295ZM107.368 34.1818C110.905 34.1818 113.513 32.5625 113.513 29.2131V15.9091H110.471V18.0739H110.3C109.831 17.1278 108.851 15.7386 106.542 15.7386C103.516 15.7386 101.138 18.108 101.138 22.4119C101.138 26.6818 103.516 28.8125 106.533 28.8125C108.775 28.8125 109.823 27.6108 110.3 26.6477H110.453V29.1278C110.453 31.054 109.175 31.8466 107.419 31.8466C105.561 31.8466 104.743 30.9688 104.368 30.2017L101.59 30.875C102.152 32.7074 104.036 34.1818 107.368 34.1818ZM107.394 26.392C105.357 26.392 104.283 24.8068 104.283 22.3949C104.283 20.017 105.34 18.2699 107.394 18.2699C109.38 18.2699 110.471 19.9148 110.471 22.3949C110.471 24.892 109.363 26.392 107.394 26.392ZM122.385 29.2557C126.221 29.2557 128.658 26.554 128.658 22.5057C128.658 18.4489 126.221 15.7386 122.385 15.7386C118.55 15.7386 116.113 18.4489 116.113 22.5057C116.113 26.554 118.55 29.2557 122.385 29.2557ZM122.402 26.7841C120.28 26.7841 119.24 24.892 119.24 22.4972C119.24 20.1023 120.28 18.1847 122.402 18.1847C124.49 18.1847 125.53 20.1023 125.53 22.4972C125.53 24.892 124.49 26.7841 122.402 26.7841Z" fill="#212936"/>
<path d="M17.6687 5H22.625V27.7113C20.5094 28.1455 18.356 28.3695 16.1962 28.38C10.1437 28.3738 6.99374 25.67 6.99374 20.4775C6.99374 15.4775 10.335 12.2275 15.5137 12.2275C16.2401 12.2133 16.965 12.2974 17.6687 12.4775V5ZM17.6687 16.4275C17.1299 16.2498 16.5647 16.1652 15.9975 16.1775C13.4975 16.1775 12.0437 17.7063 12.0437 20.385C12.0437 22.9938 13.4275 24.4338 15.9662 24.4338C16.536 24.4336 17.105 24.3918 17.6687 24.3088V16.4338V16.4275Z" fill="#44B78B"/>
<path d="M30.5 12.5737V23.9487C30.5 27.865 30.2062 29.7475 29.3462 31.3712C28.4685 33.0222 27.0334 34.3082 25.2962 35L20.6987 32.8337C22.369 32.2618 23.7679 31.0909 24.625 29.5475C25.3325 28.1462 25.5562 26.5225 25.5562 22.2512V12.5737H30.5Z" fill="#44B78B"/>
<path d="M25.5513 5.02502H30.5063V10.06H25.5513V5.02502Z" fill="#44B78B"/>
</svg>
