<svg width="50" height="50" viewBox="0 0 50 50" fill="none" xmlns="http://www.w3.org/2000/svg">
<rect width="50" height="50" rx="5" fill="#776FDA"/>
<path d="M34 25C34 27.3869 33.0518 29.6761 31.364 31.364C29.6761 33.0518 27.3869 34 25 34M34 25C34 22.6131 33.0518 20.3239 31.364 18.636C29.6761 16.9482 27.3869 16 25 16M34 25H16M25 34C22.6131 34 20.3239 33.0518 18.636 31.364C16.9482 29.6761 16 27.3869 16 25M25 34C26.657 34 28 29.97 28 25C28 20.03 26.657 16 25 16M25 34C23.343 34 22 29.97 22 25C22 20.03 23.343 16 25 16M25 16C22.6131 16 20.3239 16.9482 18.636 18.636C16.9482 20.3239 16 22.6131 16 25" stroke="white" stroke-width="2" stroke-linecap="round" stroke-linejoin="round"/>
</svg>
