<svg width="97" height="41" viewBox="0 0 97 41" fill="none" xmlns="http://www.w3.org/2000/svg">
<path d="M54.4592 11.5455H50.9904L57.1353 29H61.0387L67.1921 11.5455H63.7148L59.1808 25.2841H59.0018L54.4592 11.5455ZM77.6985 23.4943C77.6985 25.4886 76.2752 26.4773 74.9116 26.4773C73.4286 26.4773 72.44 25.429 72.44 23.767V15.9091H69.3548V24.2443C69.3548 27.3892 71.1445 29.1705 73.7184 29.1705C75.6786 29.1705 77.0593 28.1392 77.6559 26.6733H77.7923V29H80.7837V15.9091H77.6985V23.4943ZM89.7518 29.2557C92.8029 29.2557 94.8995 27.7642 95.445 25.4886L92.5643 25.1648C92.1467 26.2727 91.1239 26.8523 89.7944 26.8523C87.8001 26.8523 86.479 25.5398 86.4535 23.2983H95.5728V22.3523C95.5728 17.7585 92.8114 15.7386 89.5898 15.7386C85.8398 15.7386 83.3938 18.4915 83.3938 22.5312C83.3938 26.6392 85.8058 29.2557 89.7518 29.2557ZM86.462 21.2188C86.5558 19.5483 87.7915 18.142 89.6325 18.142C91.4052 18.142 92.5984 19.4375 92.6154 21.2188H86.462Z" fill="#212936"/>
<path d="M30.5 5.90625H37.5L20 36.0937L2.5 5.90625H15.8875L20 12.9062L24.025 5.90625H30.5Z" fill="#41B883"/>
<path d="M2.5 5.90625L20 36.0937L37.5 5.90625H30.5L20 24.0187L9.4125 5.90625H2.5Z" fill="#41B883"/>
<path d="M9.41248 5.90625L20 24.1063L30.5 5.90625H24.025L20 12.9062L15.8875 5.90625H9.41248Z" fill="#35495E"/>
</svg>
