<svg width="117" height="41" viewBox="0 0 117 41" fill="none" xmlns="http://www.w3.org/2000/svg">
<path d="M52.0224 29H55.1843V22.608H58.4059L61.832 29H65.3604L61.5849 22.0795C63.6389 21.2528 64.7212 19.4972 64.7212 17.1278C64.7212 13.7955 62.5735 11.5455 58.5678 11.5455H52.0224V29ZM55.1843 19.983V14.1875H58.082C60.4428 14.1875 61.4996 15.2699 61.4996 17.1278C61.4996 18.9858 60.4428 19.983 58.0991 19.983H55.1843ZM73.1033 29.2557C76.1545 29.2557 78.2511 27.7642 78.7965 25.4886L75.9158 25.1648C75.4982 26.2727 74.4755 26.8523 73.146 26.8523C71.1516 26.8523 69.8306 25.5398 69.805 23.2983H78.9244V22.3523C78.9244 17.7585 76.163 15.7386 72.9414 15.7386C69.1914 15.7386 66.7454 18.4915 66.7454 22.5312C66.7454 26.6392 69.1573 29.2557 73.1033 29.2557ZM69.8136 21.2188C69.9073 19.5483 71.1431 18.142 72.984 18.142C74.7567 18.142 75.9499 19.4375 75.967 21.2188H69.8136ZM85.3015 29.2642C87.3555 29.2642 88.5827 28.3011 89.1452 27.2017H89.2475V29H92.2134V20.2386C92.2134 16.7784 89.3924 15.7386 86.8952 15.7386C84.1424 15.7386 82.0288 16.9659 81.3469 19.3523L84.2276 19.7614C84.5344 18.8665 85.4038 18.0994 86.9123 18.0994C88.3441 18.0994 89.1282 18.8324 89.1282 20.1193V20.1705C89.1282 21.0568 88.1992 21.0994 85.8896 21.3466C83.3498 21.6193 80.9208 22.3778 80.9208 25.3267C80.9208 27.9006 82.8043 29.2642 85.3015 29.2642ZM86.1026 26.9972C84.8157 26.9972 83.8952 26.4091 83.8952 25.2756C83.8952 24.0909 84.9265 23.5966 86.3072 23.4006C87.1168 23.2898 88.7362 23.0852 89.1367 22.7614V24.304C89.1367 25.7614 87.9606 26.9972 86.1026 26.9972ZM101.026 29.2557C104.316 29.2557 106.412 27.304 106.634 24.5256H103.685C103.421 25.9318 102.407 26.7415 101.051 26.7415C99.1254 26.7415 97.881 25.1307 97.881 22.4545C97.881 19.8125 99.1509 18.2273 101.051 18.2273C102.534 18.2273 103.446 19.1818 103.685 20.4432H106.634C106.421 17.6051 104.205 15.7386 101.009 15.7386C97.1737 15.7386 94.7532 18.5085 94.7532 22.5057C94.7532 26.4688 97.114 29.2557 101.026 29.2557ZM115.704 15.9091H113.122V12.7727H110.037V15.9091H108.179V18.2955H110.037V25.5739C110.02 28.0369 111.809 29.2472 114.127 29.179C115.005 29.1534 115.61 28.983 115.943 28.8722L115.423 26.4602C115.252 26.5028 114.903 26.5795 114.52 26.5795C113.744 26.5795 113.122 26.3068 113.122 25.0625V18.2955H115.704V15.9091Z" fill="#212936"/>
<path d="M20 24.0925C21.7259 24.0925 23.125 22.6934 23.125 20.9675C23.125 19.2416 21.7259 17.8425 20 17.8425C18.2741 17.8425 16.875 19.2416 16.875 20.9675C16.875 22.6934 18.2741 24.0925 20 24.0925Z" fill="#00D8FF"/>
<path d="M20 28.1325C16.2439 28.2233 12.4972 27.717 8.9 26.6325C7.23828 26.1057 5.68842 25.2759 4.32875 24.185C3.80991 23.8123 3.37784 23.3318 3.06218 22.7764C2.74652 22.221 2.55474 21.6039 2.5 20.9675C2.5 18.9012 4.77 16.8762 8.5725 15.5512C12.2659 14.3772 16.1249 13.8081 20 13.8662C23.8234 13.8128 27.6307 14.3715 31.2775 15.5212C32.8779 16.0314 34.3752 16.8211 35.7 17.8537C36.21 18.209 36.6356 18.6721 36.9466 19.2102C37.2577 19.7483 37.4466 20.3482 37.5 20.9675C37.5 23.115 34.9625 25.2912 30.875 26.6437C27.3474 27.6929 23.6798 28.195 20 28.1325ZM20 15.3612C16.2926 15.3117 12.601 15.8526 9.06375 16.9637C5.56375 18.185 3.995 19.855 3.995 20.9637C3.995 22.1237 5.68125 23.9475 9.38375 25.2137C12.8251 26.246 16.4083 26.7266 20 26.6375C23.5205 26.7004 27.0299 26.2241 30.4062 25.225C34.25 23.9512 36 22.125 36 20.9675C35.9369 20.5703 35.7922 20.1904 35.5749 19.852C35.3576 19.5136 35.0724 19.2239 34.7375 19.0012C33.5522 18.0851 32.2146 17.3853 30.7862 16.9337C27.2975 15.8384 23.6562 15.3076 20 15.3612Z" fill="#00D8FF"/>
<path d="M12.9 36.5537C12.3169 36.5671 11.7406 36.4256 11.23 36.1437C9.44 35.1112 8.82 32.1337 9.57125 28.1775C10.3996 24.3913 11.8348 20.7641 13.8213 17.4362C15.6847 14.0976 18.0702 11.0786 20.8875 8.49372C22.1289 7.3621 23.5611 6.45939 25.1175 5.82747C25.6804 5.56364 26.2945 5.42688 26.9163 5.42688C27.538 5.42688 28.152 5.56364 28.715 5.82747C30.5762 6.89997 31.1925 10.185 30.3238 14.4012C29.4699 17.9819 28.072 21.4105 26.1788 24.5675C24.3809 27.8667 22.0705 30.8594 19.3337 33.4337C18.0472 34.6097 16.5542 35.5374 14.93 36.17C14.2798 36.4113 13.5935 36.541 12.9 36.5537ZM15.1163 18.1787C13.2214 21.3654 11.8458 24.8333 11.0413 28.4525C10.35 32.0962 11.0138 34.2875 11.9788 34.845C12.9788 35.4237 15.4062 34.875 18.3537 32.3C20.9663 29.8337 23.1715 26.969 24.8875 23.8125C26.7012 20.7944 28.0421 17.5164 28.8637 14.0925C29.6812 10.1237 28.975 7.69372 27.9725 7.11622C27.5968 6.97225 27.1952 6.9078 26.7933 6.92695C26.3914 6.9461 25.9978 7.04843 25.6375 7.22747C24.2521 7.79915 22.9784 8.61075 21.875 9.62497C19.1833 12.101 16.9046 14.9911 15.125 18.1862L15.1163 18.1787Z" fill="#00D8FF"/>
<path d="M27.0962 36.57C25.4025 36.57 23.2512 35.545 21.0112 33.6187C18.1446 31.0103 15.7187 27.9555 13.8275 24.5725C11.8659 21.2904 10.4421 17.7157 9.61 13.9837C9.24913 12.3418 9.18226 10.649 9.4125 8.98372C9.46572 8.36598 9.65382 7.76744 9.96354 7.2303C10.2732 6.69317 10.697 6.23051 11.205 5.87497C13.0637 4.79872 16.2175 5.90497 19.4362 8.76247C22.112 11.2902 24.3842 14.2134 26.1737 17.43C28.1341 20.6354 29.5729 24.1319 30.4362 27.7887C30.8126 29.4909 30.8707 31.248 30.6075 32.9712C30.5449 33.6067 30.3456 34.2212 30.0232 34.7724C29.7009 35.3237 29.2631 35.7987 28.74 36.165C28.2377 36.4434 27.6704 36.5832 27.0962 36.57ZM15.1212 23.82C16.9355 27.053 19.2529 29.9767 21.9862 32.4812C24.7975 34.9 27.0275 35.42 27.9862 34.8562C28.9862 34.275 29.7237 31.9025 28.9637 28.0637C28.1311 24.5724 26.7511 21.2349 24.875 18.175C23.1673 15.0964 20.9984 12.2973 18.4437 9.87497C15.4137 7.18497 12.9562 6.58372 11.955 7.16372C11.6429 7.41733 11.3868 7.73288 11.2029 8.09046C11.0189 8.44804 10.9111 8.83987 10.8862 9.24122C10.6875 10.7263 10.7522 12.2349 11.0775 13.6975C11.8779 17.2664 13.2434 20.6845 15.1225 23.8225L15.1212 23.82Z" fill="#00D8FF"/>
</svg>
