<svg width="50" height="50" viewBox="0 0 50 50" fill="none" xmlns="http://www.w3.org/2000/svg">
<rect width="50" height="50" rx="5" fill="#776FDA"/>
<path d="M25 19V17M25 19C24.4696 19 23.9609 19.2107 23.5858 19.5858C23.2107 19.9609 23 20.4696 23 21C23 21.5304 23.2107 22.0391 23.5858 22.4142C23.9609 22.7893 24.4696 23 25 23M25 19C25.5304 19 26.0391 19.2107 26.4142 19.5858C26.7893 19.9609 27 20.4696 27 21C27 21.5304 26.7893 22.0391 26.4142 22.4142C26.0391 22.7893 25.5304 23 25 23M25 23V33M19 31C19.5304 31 20.0391 30.7893 20.4142 30.4142C20.7893 30.0391 21 29.5304 21 29C21 28.4696 20.7893 27.9609 20.4142 27.5858C20.0391 27.2107 19.5304 27 19 27M19 31C18.4696 31 17.9609 30.7893 17.5858 30.4142C17.2107 30.0391 17 29.5304 17 29C17 28.4696 17.2107 27.9609 17.5858 27.5858C17.9609 27.2107 18.4696 27 19 27M19 31V33M19 27V17M31 31C31.5304 31 32.0391 30.7893 32.4142 30.4142C32.7893 30.0391 33 29.5304 33 29C33 28.4696 32.7893 27.9609 32.4142 27.5858C32.0391 27.2107 31.5304 27 31 27M31 31C30.4696 31 29.9609 30.7893 29.5858 30.4142C29.2107 30.0391 29 29.5304 29 29C29 28.4696 29.2107 27.9609 29.5858 27.5858C29.9609 27.2107 30.4696 27 31 27M31 31V33M31 27V17" stroke="white" stroke-width="2" stroke-linecap="round" stroke-linejoin="round"/>
</svg>
